ffmpeg version 2.1.1 Copyright (c) 2000-2013 the FFmpeg developers
  built on Dec 20 2014 10:34:55 with gcc 4.7 (Debian 4.7.2-5)
  configuration: --enable-gpl --enable-nonfree --enable-postproc --enable-pthreads --enable-x11grab --enable-swscale --enable-version3 --enable-shared --disable-yasm --enable-filter=movie --enable-frei0r --enable-libdc1394 --enable-libfaac --enable-libmp3lame --enable-libx264 --enable-libxvid --enable-libfreetype --enable-libvorbis --enable-libgsm --enable-libopencore-amrnb --enable-libopencore-amrwb --enable-libopenjpeg --enable-librtmp --enable-libschroedinger --enable-libspeex --enable-libtheora --enable-libvpx --enable-libvo-amrwbenc --enable-libvo-aacenc --enable-libaacplus --enable-libxavs --enable-bzlib --enable-openssl --enable-gnutls --enable-openal --enable-libv4l2 --enable-libpulse --enable-libmodplug --enable-libass --enable-libcdio --enable-vdpau --enable-libbluray
  libavutil      52. 48.101 / 52. 48.101
  libavcodec     55. 39.101 / 55. 39.101
  libavformat    55. 19.104 / 55. 19.104
  libavdevice    55.  5.100 / 55.  5.100
  libavfilter     3. 90.100 /  3. 90.100
  libswscale      2.  5.101 /  2.  5.101
  libswresample   0. 17.104 /  0. 17.104
  libpostproc    52.  3.100 / 52.  3.100
Input #0, mov,mp4,m4a,3gp,3g2,mj2, from '/var/www/business-supermarket.com/web/www/temp/0671177001421762664.mp4':
  Metadata:
    major_brand     : isom
    minor_version   : 512
    compatible_brands: isomiso2avc1mp41
    date            : 2013-06-13T08:05:52+01:00
    encoder         : Lavf55.19.104
  Duration: 00:03:29.86, start: 0.023220, bitrate: 980 kb/s
    Stream #0:0(und): Video: h264 (Constrained Baseline) (avc1 / 0x31637661), yuv420p, 720x576 [SAR 64:45 DAR 16:9], 853 kb/s, 25 fps, 25 tbr, 12800 tbn, 50 tbc (default)
    Metadata:
      handler_name    : VideoHandler
    Stream #0:1(und): Audio: aac (mp4a / 0x6134706D), 44100 Hz, stereo, fltp, 121 kb/s (default)
    Metadata:
      handler_name    : SoundHandler
Please use -b:a or -b:v, -b is ambiguous
Output #0, flv, to '/var/www/business-supermarket.com/web/www/upload/users/jag_1/videos/0671177001421762664.flv':
  Metadata:
    major_brand     : isom
    minor_version   : 512
    compatible_brands: isomiso2avc1mp41
    date            : 2013-06-13T08:05:52+01:00
    encoder         : Lavf55.19.104
    Stream #0:0(und): Video: flv1 (flv) ([2][0][0][0] / 0x0002), yuv420p, 512x384 [SAR 4:3 DAR 16:9], q=2-31, 1000 kb/s, 1k tbn, 30 tbc (default)
    Metadata:
      handler_name    : VideoHandler
    Stream #0:1(und): Audio: mp3 (libmp3lame) ([2][0][0][0] / 0x0002), 44100 Hz, stereo, fltp, 128 kb/s (default)
    Metadata:
      handler_name    : SoundHandler
Stream mapping:
  Stream #0:0 -> #0:0 (h264 -> flv)
  Stream #0:1 -> #0:1 (aac -> libmp3lame)
Press [q] to stop, [?] for help
frame=   58 fps=0.0 q=2.0 size=     269kB time=00:00:02.40 bitrate= 917.4kbits/s    frame=  120 fps=119 q=2.0 size=     490kB time=00:00:04.85 bitrate= 826.8kbits/s    frame=  173 fps=115 q=2.0 size=     704kB time=00:00:06.99 bitrate= 824.0kbits/s    frame=  226 fps=112 q=2.0 size=     938kB time=00:00:09.11 bitrate= 843.0kbits/s    frame=  287 fps=114 q=2.0 size=    1206kB time=00:00:11.54 bitrate= 855.5kbits/s    frame=  337 fps=111 q=1.6 size=    1691kB time=00:00:13.52 bitrate=1024.1kbits/s    frame=  377 fps=107 q=2.0 size=    2182kB time=00:00:15.14 bitrate=1179.8kbits/s    frame=  422 fps=104 q=4.0 size=    2603kB time=00:00:16.95 bitrate=1257.7kbits/s    frame=  467 fps=103 q=3.7 size=    2897kB time=00:00:18.72 bitrate=1267.0kbits/s    frame=  518 fps=103 q=3.8 size=    3217kB time=00:00:20.76 bitrate=1269.0kbits/s    frame=  564 fps=102 q=5.8 size=    3454kB time=00:00:22.62 bitrate=1250.7kbits/s    frame=  610 fps=101 q=7.2 size=    3679kB time=00:00:24.45 bitrate=1232.8kbits/s    frame=  658 fps=100 q=5.3 size=    3909kB time=00:00:26.38 bitrate=1213.9kbits/s    frame=  707 fps=100 q=3.5 size=    4163kB time=00:00:28.34 bitrate=1203.3kbits/s    frame=  761 fps=100 q=3.5 size=    4468kB time=00:00:30.50 bitrate=1199.7kbits/s    frame=  808 fps=100 q=3.1 size=    4724kB time=00:00:32.39 bitrate=1194.8kbits/s    frame=  853 fps= 99 q=3.4 size=    4976kB time=00:00:34.19 bitrate=1192.1kbits/s    frame=  894 fps= 98 q=5.6 size=    5191kB time=00:00:35.83 bitrate=1186.7kbits/s    frame=  942 fps= 98 q=4.7 size=    5450kB time=00:00:37.74 bitrate=1182.9kbits/s    frame=  988 fps= 98 q=3.5 size=    5712kB time=00:00:39.60 bitrate=1181.6kbits/s    frame= 1045 fps= 99 q=1.6 size=    6021kB time=00:00:41.87 bitrate=1177.9kbits/s    frame= 1105 fps= 99 q=1.6 size=    6299kB time=00:00:44.24 bitrate=1166.2kbits/s    frame= 1165 fps=100 q=1.6 size=    6579kB time=00:00:46.67 bitrate=1154.6kbits/s    frame= 1224 fps=101 q=2.0 size=    6813kB time=00:00:49.03 bitrate=1138.3kbits/s    frame= 1278 fps=101 q=2.0 size=    7093kB time=00:00:51.17 bitrate=1135.5kbits/s    frame= 1339 fps=102 q=2.0 size=    7376kB time=00:00:53.62 bitrate=1126.7kbits/s    frame= 1395 fps=102 q=2.0 size=    7655kB time=00:00:55.84 bitrate=1122.9kbits/s    frame= 1451 fps=103 q=2.0 size=    7889kB time=00:00:58.09 bitrate=1112.5kbits/s    frame= 1508 fps=103 q=2.0 size=    8171kB time=00:01:00.34 bitrate=1109.3kbits/s    frame= 1565 fps=103 q=2.0 size=    8452kB time=00:01:02.66 bitrate=1104.8kbits/s    frame= 1622 fps=104 q=2.0 size=    8742kB time=00:01:04.93 bitrate=1102.8kbits/s    frame= 1685 fps=104 q=2.0 size=    8963kB time=00:01:07.44 bitrate=1088.6kbits/s    frame= 1744 fps=105 q=2.0 size=    9161kB time=00:01:09.79 bitrate=1075.2kbits/s    frame= 1801 fps=105 q=1.6 size=    9286kB time=00:01:12.09 bitrate=1055.1kbits/s    frame= 1859 fps=105 q=2.0 size=    9395kB time=00:01:14.39 bitrate=1034.6kbits/s    frame= 1921 fps=106 q=1.6 size=    9629kB time=00:01:16.90 bitrate=1025.7kbits/s    frame= 1979 fps=106 q=2.0 size=    9811kB time=00:01:19.22 bitrate=1014.5kbits/s    frame= 2040 fps=106 q=2.0 size=   10039kB time=00:01:21.65 bitrate=1007.1kbits/s    frame= 2098 fps=107 q=2.0 size=   10316kB time=00:01:23.95 bitrate=1006.6kbits/s    frame= 2155 fps=107 q=2.0 size=   10598kB time=00:01:26.25 bitrate=1006.5kbits/s    frame= 2216 fps=107 q=2.0 size=   10922kB time=00:01:28.71 bitrate=1008.6kbits/s    frame= 2243 fps=106 q=2.0 size=   11021kB time=00:01:29.78 bitrate=1005.6kbits/s    frame= 2301 fps=106 q=2.0 size=   11261kB time=00:01:32.08 bitrate=1001.9kbits/s    frame= 2355 fps=106 q=2.0 size=   11497kB time=00:01:34.27 bitrate= 999.1kbits/s    frame= 2413 fps=106 q=1.6 size=   11738kB time=00:01:36.57 bitrate= 995.7kbits/s    frame= 2469 fps=106 q=2.0 size=   11938kB time=00:01:38.81 bitrate= 989.7kbits/s    frame= 2529 fps=107 q=2.0 size=   12181kB time=00:01:41.22 bitrate= 985.8kbits/s    frame= 2588 fps=107 q=2.0 size=   12423kB time=00:01:43.57 bitrate= 982.6kbits/s    frame= 2648 fps=107 q=2.0 size=   12666kB time=00:01:45.97 bitrate= 979.1kbits/s    frame= 2706 fps=107 q=2.0 size=   12907kB time=00:01:48.27 bitrate= 976.5kbits/s    frame= 2764 fps=108 q=2.0 size=   13148kB time=00:01:50.62 bitrate= 973.6kbits/s    frame= 2819 fps=108 q=2.0 size=   13348kB time=00:01:52.82 bitrate= 969.2kbits/s    frame= 2881 fps=108 q=1.6 size=   13559kB time=00:01:55.30 bitrate= 963.4kbits/s    frame= 2940 fps=108 q=2.0 size=   13674kB time=00:01:57.65 bitrate= 952.1kbits/s    frame= 3001 fps=108 q=1.6 size=   13825kB time=00:02:00.08 bitrate= 943.1kbits/s    frame= 3057 fps=108 q=2.0 size=   13995kB time=00:02:02.35 bitrate= 937.0kbits/s    frame= 3116 fps=108 q=2.0 size=   14194kB time=00:02:04.68 bitrate= 932.6kbits/s    frame= 3174 fps=109 q=2.0 size=   14392kB time=00:02:07.00 bitrate= 928.3kbits/s    frame= 3217 fps=108 q=1.6 size=   14631kB time=00:02:08.72 bitrate= 931.1kbits/s    frame= 3278 fps=108 q=2.0 size=   14849kB time=00:02:11.18 bitrate= 927.3kbits/s    frame= 3341 fps=109 q=2.0 size=   14969kB time=00:02:13.69 bitrate= 917.2kbits/s    frame= 3396 fps=109 q=2.0 size=   15251kB time=00:02:15.91 bitrate= 919.3kbits/s    frame= 3453 fps=109 q=2.0 size=   15521kB time=00:02:18.18 bitrate= 920.1kbits/s    frame= 3492 fps=108 q=2.0 size=   16071kB time=00:02:19.72 bitrate= 942.2kbits/s    frame= 3537 fps=108 q=2.0 size=   16845kB time=00:02:21.55 bitrate= 974.8kbits/s    frame= 3584 fps=108 q=2.0 size=   17615kB time=00:02:23.43 bitrate=1006.1kbits/s    frame= 3596 fps=106 q=2.0 size=   17803kB time=00:02:23.90 bitrate=1013.5kbits/s    frame= 3638 fps=102 q=2.0 size=   18566kB time=00:02:25.57 bitrate=1044.7kbits/s    frame= 3664 fps=101 q=2.0 size=   18964kB time=00:02:26.62 bitrate=1059.5kbits/s    frame= 3705 fps=101 q=2.0 size=   19663kB time=00:02:28.24 bitrate=1086.6kbits/s    frame= 3745 fps=101 q=2.0 size=   20236kB time=00:02:29.86 bitrate=1106.2kbits/s    frame= 3796 fps=101 q=2.0 size=   20424kB time=00:02:31.90 bitrate=1101.5kbits/s    frame= 3849 fps=101 q=2.0 size=   20724kB time=00:02:33.99 bitrate=1102.5kbits/s    frame= 3904 fps=101 q=2.0 size=   20981kB time=00:02:36.21 bitrate=1100.3kbits/s    frame= 3950 fps=101 q=2.0 size=   21216kB time=00:02:38.09 bitrate=1099.4kbits/s    frame= 4001 fps=101 q=2.0 size=   21467kB time=00:02:40.10 bitrate=1098.4kbits/s    frame= 4053 fps=101 q=2.0 size=   21715kB time=00:02:42.19 bitrate=1096.8kbits/s    frame= 4112 fps=101 q=2.0 size=   22020kB time=00:02:44.54 bitrate=1096.3kbits/s    frame= 4170 fps=101 q=1.6 size=   22437kB time=00:02:46.86 bitrate=1101.5kbits/s    frame= 4228 fps=101 q=2.0 size=   22780kB time=00:02:49.19 bitrate=1103.0kbits/s    frame= 4284 fps=101 q=2.0 size=   23060kB time=00:02:51.44 bitrate=1101.9kbits/s    frame= 4342 fps=101 q=2.0 size=   23266kB time=00:02:53.73 bitrate=1097.0kbits/s    frame= 4399 fps=102 q=2.0 size=   23503kB time=00:02:56.03 bitrate=1093.7kbits/s    frame= 4458 fps=102 q=1.6 size=   23712kB time=00:02:58.38 bitrate=1088.9kbits/s    frame= 4517 fps=102 q=2.0 size=   23889kB time=00:03:00.73 bitrate=1082.8kbits/s    frame= 4568 fps=102 q=2.0 size=   24369kB time=00:03:02.77 bitrate=1092.2kbits/s    frame= 4618 fps=102 q=2.0 size=   24823kB time=00:03:04.78 bitrate=1100.5kbits/s    frame= 4622 fps=101 q=2.0 size=   24843kB time=00:03:04.94 bitrate=1100.4kbits/s    frame= 4667 fps=101 q=2.0 size=   25709kB time=00:03:06.74 bitrate=1127.8kbits/s    frame= 4716 fps=101 q=3.4 size=   26306kB time=00:03:08.70 bitrate=1142.0kbits/s    frame= 4764 fps=101 q=8.2 size=   26703kB time=00:03:10.61 bitrate=1147.6kbits/s    frame= 4791 fps=100 q=6.4 size=   26885kB time=00:03:11.71 bitrate=1148.8kbits/s    frame= 4843 fps=100 q=6.8 size=   27197kB time=00:03:13.77 bitrate=1149.8kbits/s    frame= 4895 fps=100 q=7.0 size=   27468kB time=00:03:15.86 bitrate=1148.8kbits/s    frame= 4945 fps=100 q=6.3 size=   27744kB time=00:03:17.84 bitrate=1148.8kbits/s    frame= 5002 fps=100 q=2.1 size=   28003kB time=00:03:20.12 bitrate=1146.3kbits/s    frame= 5071 fps=101 q=2.0 size=   28225kB time=00:03:22.89 bitrate=1139.6kbits/s    frame= 5138 fps=101 q=2.0 size=   28445kB time=00:03:25.58 bitrate=1133.5kbits/s    frame= 5201 fps=101 q=2.0 size=   28625kB time=00:03:28.08 bitrate=1126.9kbits/s    frame= 5246 fps=101 q=2.0 Lsize=   28695kB time=00:03:29.89 bitrate=1120.0kbits/s    
video:25207kB audio:3280kB subtitle:0 global headers:0kB muxing overhead 0.729944%
